<svg width="79" height="29" viewBox="0 0 79 29" fill="none" xmlns="http://www.w3.org/2000/svg">
<g clip-path="url(#clip0_14_137)">
<path d="M40.7862 9.60529L44.5447 9.36515C44.6304 9.97256 44.7876 10.4246 45.0449 10.7495C45.4593 11.258 46.0309 11.5123 46.7883 11.5123C47.3457 11.5123 47.7887 11.3851 48.0888 11.1167C48.3746 10.9049 48.5461 10.5658 48.5461 10.2127C48.5461 9.87368 48.3889 9.54879 48.1174 9.3369C47.8316 9.08264 47.1599 8.82838 46.1024 8.60237C44.3732 8.22097 43.1299 7.71245 42.4011 7.06267C41.6722 6.45527 41.2578 5.56535 41.2864 4.61893C41.2864 3.96915 41.4864 3.31937 41.858 2.78259C42.2867 2.17519 42.8726 1.69492 43.5729 1.42653C44.3303 1.10164 45.3878 0.932129 46.7169 0.932129C48.3461 0.932129 49.5894 1.22877 50.4468 1.83617C51.3043 2.42945 51.8187 3.39 51.9759 4.70368L48.2603 4.91557C48.1603 4.35054 47.9602 3.9409 47.6315 3.67251C47.3028 3.40412 46.8741 3.27699 46.3168 3.27699C45.8594 3.27699 45.5165 3.37587 45.2878 3.5595C45.0734 3.72901 44.9305 3.98327 44.9448 4.26579C44.9448 4.47767 45.0592 4.67543 45.2306 4.80256C45.4164 4.97207 45.8594 5.12745 46.5597 5.26871C48.2889 5.63598 49.5179 6.00324 50.2753 6.38464C51.0327 6.76603 51.5758 7.23218 51.9045 7.78308C52.2475 8.3481 52.419 8.99789 52.4047 9.66179C52.4047 10.4528 52.176 11.2439 51.7187 11.9078C51.2471 12.5999 50.5897 13.1367 49.818 13.4616C49.0034 13.8147 47.9745 13.9984 46.7455 13.9984C44.5733 13.9984 43.0727 13.5887 42.2296 12.7553C41.3864 11.9219 40.8862 10.8766 40.7862 9.60529ZM0.900326 13.7865V1.15814H7.48842C8.70315 1.15814 9.64635 1.25702 10.2894 1.4689C10.9182 1.66666 11.4756 2.07631 11.8471 2.62721C12.2616 3.23461 12.4616 3.9409 12.4474 4.67543C12.4902 5.91849 11.8471 7.10505 10.7467 7.72658C10.318 7.96671 9.84642 8.13622 9.36053 8.22097C9.7178 8.31985 10.0751 8.48936 10.3895 8.68712C10.6324 8.88488 10.8325 9.11089 11.0183 9.35103C11.2326 9.59116 11.4184 9.85955 11.5756 10.1421L13.4906 13.8006H9.00326L6.88821 9.91605C6.61668 9.42166 6.38802 9.09677 6.17366 8.94138C5.88784 8.74362 5.54486 8.64474 5.20188 8.64474H4.8589V13.7724H0.900326V13.7865ZM4.8589 6.27163H6.53093C6.88821 6.24338 7.23119 6.18688 7.57417 6.10212C7.8314 6.05975 8.06006 5.91849 8.21726 5.70661C8.60311 5.19808 8.54595 4.47767 8.07435 4.03978C7.81711 3.82789 7.31693 3.71489 6.60239 3.71489H4.8589V6.27163ZM0 24.6067L3.7585 24.3666C3.84425 24.974 4.00145 25.426 4.25868 25.7509C4.65883 26.2595 5.24475 26.5278 6.00217 26.5278C6.55951 26.5278 7.00253 26.4007 7.30264 26.1323C7.58846 25.9063 7.75995 25.5814 7.75995 25.2283C7.75995 24.8893 7.60275 24.5644 7.33122 24.3525C7.0454 24.0982 6.37373 23.844 5.30192 23.618C3.57272 23.2366 2.32941 22.728 1.60058 22.0783C0.871744 21.4709 0.457308 20.5809 0.48589 19.6345C0.48589 18.9847 0.685962 18.335 1.05753 17.7982C1.48625 17.1908 2.07218 16.7105 2.77243 16.4421C3.52985 16.1172 4.58737 15.9477 5.91643 15.9477C7.54559 15.9477 8.78889 16.2444 9.64635 16.8518C10.5038 17.4592 11.004 18.4056 11.1612 19.7193L7.44555 19.9312C7.34551 19.3661 7.14544 18.9565 6.81675 18.6881C6.50235 18.4197 6.05933 18.2926 5.50199 18.3067C5.04468 18.3067 4.7017 18.4056 4.47305 18.6033C4.24439 18.7728 4.11577 19.0271 4.13006 19.3096C4.13006 19.5215 4.24439 19.7193 4.41588 19.8464C4.60166 20.0159 5.04468 20.1713 5.74494 20.3125C7.47413 20.6798 8.70315 21.0471 9.46056 21.4285C10.218 21.8099 10.761 22.276 11.0897 22.8269C11.4327 23.3919 11.6042 24.0417 11.6042 24.6915C11.6042 25.4825 11.3613 26.2595 10.9182 26.9234C10.4466 27.6155 9.78925 28.1523 9.01755 28.4772C8.20297 28.8303 7.17402 29.014 5.94501 29.014C3.77279 29.014 2.27225 28.6043 1.42909 27.7709C0.585926 26.9234 0.114327 25.8781 0 24.6067Z" fill="#F5F5F5"/>
<path d="M19.0069 23.618L22.4653 24.6492C22.2795 25.5108 21.8937 26.3301 21.3649 27.0505C20.879 27.6862 20.2359 28.1806 19.5071 28.5055C18.764 28.8304 17.8208 28.9999 16.6775 28.9999C15.2913 28.9999 14.148 28.8021 13.2763 28.4066C12.3902 28.0111 11.6328 27.3048 10.9897 26.3019C10.3466 25.2989 10.0322 24.0135 10.0322 22.4456C10.0322 20.355 10.5896 18.7446 11.7186 17.6287C12.8475 16.5128 14.4338 15.9478 16.4917 15.9478C18.1066 15.9478 19.3642 16.2726 20.2931 16.9083C21.2077 17.5581 21.8937 18.5469 22.351 19.8747L18.864 20.6375C18.7782 20.3408 18.6496 20.0442 18.4781 19.7899C18.2638 19.4933 17.9922 19.2673 17.6636 19.0978C17.3349 18.9283 16.9633 18.8576 16.5917 18.8576C15.6914 18.8576 15.0055 19.2108 14.5339 19.9312C14.1766 20.4538 13.9908 21.2873 13.9908 22.4173C13.9908 23.8158 14.2052 24.7763 14.6339 25.2989C15.0626 25.8216 15.6628 26.0759 16.4488 26.0759C17.2063 26.0759 17.7779 25.864 18.1637 25.4543C18.5496 25.0164 18.8354 24.409 19.0069 23.618ZM27.0813 16.1596H31.0255V20.581H35.3414V16.1596H39.3142V28.788H35.3414V23.6745H31.0255V28.788H27.0813V16.1596Z" fill="#F5F5F5"/>
<path d="M38.771 22.4738C38.771 20.4114 39.3569 18.8011 40.5145 17.6569C41.672 16.5127 43.3012 15.9336 45.3734 15.9336C47.5027 15.9336 49.1319 16.4986 50.2894 17.6287C51.447 18.7587 52.0186 20.3408 52.0186 22.3749C52.0186 23.8581 51.7614 25.0588 51.2612 26.0052C50.7753 26.9375 50.0179 27.7003 49.089 28.2088C48.1315 28.7314 46.9454 28.9998 45.5306 28.9998C44.0872 28.9998 42.9011 28.7738 41.9579 28.3218C40.9861 27.8415 40.1858 27.0929 39.657 26.1747C39.0711 25.1859 38.771 23.957 38.771 22.4738ZM42.7153 22.4879C42.7153 23.7592 42.9582 24.6774 43.4298 25.2424C43.9014 25.7933 44.5588 26.0758 45.3877 26.0758C46.2308 26.0758 46.8882 25.8074 47.3598 25.2565C47.8314 24.7056 48.0601 23.731 48.0601 22.3184C48.0601 21.1318 47.8171 20.256 47.3312 19.7193C46.8453 19.1684 46.188 18.9 45.3591 18.9C44.6303 18.8717 43.93 19.1825 43.4441 19.7334C42.9582 20.2843 42.7153 21.2025 42.7153 22.4879ZM56.063 22.4738C56.063 20.4114 56.6489 18.8011 57.8065 17.6569C58.964 16.5127 60.5932 15.9336 62.6654 15.9336C64.7947 15.9336 66.4381 16.4986 67.5814 17.6287C68.7247 18.7587 69.3106 20.3408 69.3106 22.3749C69.3106 23.8581 69.0534 25.0588 68.5532 26.0052C68.0673 26.9375 67.3099 27.7003 66.381 28.2088C65.4235 28.7314 64.2374 28.9998 62.8226 28.9998C61.3792 28.9998 60.193 28.7738 59.2498 28.3218C58.2781 27.8415 57.4778 27.0929 56.949 26.1747C56.3631 25.1859 56.063 23.957 56.063 22.4738ZM60.0072 22.4879C60.0072 23.7592 60.2502 24.6774 60.7218 25.2424C61.1934 25.7933 61.8508 26.0758 62.6796 26.0758C63.5228 26.0758 64.1802 25.8074 64.6518 25.2565C65.1234 24.7056 65.352 23.731 65.352 22.3184C65.352 21.1318 65.1091 20.256 64.6232 19.7193C64.1373 19.1684 63.4799 18.9 62.6511 18.9C61.9222 18.8717 61.2077 19.1825 60.7361 19.7334C60.2502 20.2843 60.0072 21.2025 60.0072 22.4879Z" fill="#F5F5F5"/>
<path d="M68.8961 16.1597H72.8404V25.6804H78.9998V28.788H68.8818V16.1597H68.8961Z" fill="#F5F5F5"/>
<path d="M64.5488 15.4311C68.5198 12.4731 69.7443 7.45901 67.2838 4.23167C64.8233 1.00433 59.6095 0.785915 55.6385 3.74383C51.6674 6.70175 50.4429 11.7159 52.9034 14.9432C55.3639 18.1706 60.5777 18.389 64.5488 15.4311Z" stroke="#F5F5F5" stroke-miterlimit="10"/>
<path d="M56.0775 8.65907L57.5066 7.67027L59.2643 10.1423C59.5645 10.5378 59.7931 10.9616 59.9646 11.4277C60.0646 11.7808 60.0361 12.1622 59.8931 12.5013C59.7074 12.925 59.4073 13.2782 59.0071 13.5324C58.5355 13.8573 58.1354 14.041 57.7924 14.0975C57.4637 14.154 57.1207 14.0975 56.8063 13.9562C56.4633 13.7867 56.1632 13.5466 55.9346 13.2358L57.1636 12.1057C57.2636 12.2611 57.3922 12.4024 57.5352 12.5154C57.6352 12.586 57.7495 12.6284 57.8781 12.6284C57.9782 12.6284 58.0782 12.586 58.1497 12.5295C58.2926 12.4447 58.3926 12.2752 58.3783 12.1057C58.3354 11.8656 58.2354 11.6255 58.0782 11.4418L56.0775 8.65907ZM60.3647 10.227L61.6652 9.20997C61.8081 9.37948 61.9939 9.50661 62.194 9.57724C62.4798 9.66199 62.7799 9.60549 63.0228 9.42186C63.1943 9.30885 63.3373 9.15347 63.3944 8.95571C63.4802 8.70145 63.3372 8.41893 63.08 8.33418C63.0371 8.32006 62.9943 8.30593 62.9514 8.30593C62.7799 8.2918 62.4798 8.36243 62.0368 8.54607C61.3079 8.8427 60.7363 8.95571 60.3076 8.91333C59.8931 8.87096 59.5073 8.65907 59.2786 8.30593C59.1071 8.06579 59.0214 7.78328 59.0071 7.50077C59.0071 7.17588 59.0929 6.85099 59.2786 6.5826C59.5502 6.2012 59.8789 5.87631 60.279 5.62205C60.8792 5.21241 61.408 5.01465 61.8653 5.01465C62.3226 5.01465 62.7513 5.22653 63.1515 5.66443L61.8653 6.66735C61.6081 6.34246 61.1222 6.27183 60.7935 6.5261L60.7506 6.56847C60.6077 6.65323 60.5077 6.78036 60.4505 6.93574C60.4076 7.04874 60.4362 7.17588 60.5077 7.27476C60.5648 7.34538 60.6506 7.40189 60.7506 7.40189C60.8649 7.41601 61.065 7.35951 61.3508 7.23238C62.0654 6.93574 62.6084 6.76623 62.98 6.70973C63.2944 6.65323 63.6231 6.68148 63.9232 6.80861C64.1947 6.92161 64.4234 7.11937 64.5806 7.35951C64.7806 7.64202 64.895 7.98104 64.9092 8.33418C64.9235 8.70145 64.8235 9.05459 64.6234 9.36536C64.3662 9.74675 64.0375 10.0716 63.6516 10.3259C62.8656 10.8627 62.2226 11.0887 61.7081 11.0039C61.1507 10.9192 60.6934 10.6367 60.3647 10.227Z" fill="#F5F5F5"/>
</g>
<defs>
<clipPath id="clip0_14_137">
<rect width="79" height="29" fill="white"/>
</clipPath>
</defs>
</svg>
